<svg width="512" height="512" viewBox="0 0 512 512" fill="none" xmlns="http://www.w3.org/2000/svg">
<circle cx="256" cy="256" r="250" fill="white" stroke="#A9A9A9" stroke-width="12"/>
<path d="M288.447 50.5125C300.919 55.0545 310.467 63.543 318.034 74.6878C342.218 71.0201 366.72 78.9982 384.089 96.3675C401.458 113.737 409.441 138.229 405.773 162.418C425.473 176.928 437.147 199.893 437.147 224.456C437.147 249.946 424.651 273.549 403.632 287.964C400.04 300.593 393.31 312.088 384.089 321.309C369.277 336.121 349.478 343.778 329.552 343.778C314.957 343.778 300.296 339.671 287.478 331.258L290.072 327.306L240.696 321.105L239.675 325.723C237.681 325.279 235.691 324.759 233.739 324.168C215.746 340.294 191.793 346.335 169.267 342.516C169.309 342.128 169.494 341.022 169.522 340.725C145.593 323.634 123.506 286.49 123.303 256C123.109 226.621 136.045 197.067 158.25 179.565C153.902 150.654 163.557 122.863 181.65 100.697C200.371 77.7646 230.984 68.137 259.238 74.4089C260.41 60.7497 274.419 55.3381 288.447 50.5125Z" fill="#7FB241"/>
<path d="M169.517 340.72C145.593 323.634 127.486 286.962 127.287 256.473C127.094 227.094 140.134 199.534 162.333 182.033C157.985 153.122 166.833 123.766 186.372 102.862C205.906 81.9569 233.592 72.2253 261.015 76.4365C268.407 65.6841 277.803 56.9261 288.447 50.5219C278.427 45.8523 267.391 43.3142 255.995 43.3142C231.433 43.3142 208.467 54.9883 193.957 74.6925C169.773 71.0201 145.276 79.0029 127.907 96.3723C110.537 113.742 102.554 138.234 106.227 162.423C86.5226 176.933 74.8533 199.898 74.8533 224.461C74.8533 249.95 87.3497 273.554 108.368 287.969C111.955 300.588 118.685 312.088 127.911 321.313C139.519 332.921 154.067 339.945 169.262 342.521C169.3 342.128 169.489 341.013 169.517 340.72Z" fill="#719C40"/>
<path d="M315.188 303.15L300.863 289.222C299.033 287.449 296.141 287.435 294.302 289.188L276.035 306.629V236.57C276.035 233.961 273.922 231.844 271.309 231.844H251.104C248.495 231.844 246.377 233.961 246.377 236.57V270.534L223.951 247.285C222.169 245.437 218.927 245.437 217.149 247.285L205.239 259.639C203.495 261.445 203.471 264.299 205.178 266.138L235.97 299.256V463.959C235.97 466.573 238.087 468.686 240.696 468.686H271.309C273.922 468.686 276.035 466.573 276.035 463.959V347.171L315.15 309.965C316.081 309.077 316.611 307.853 316.62 306.567C316.63 305.277 316.11 304.048 315.188 303.15Z" fill="#A07E63"/>
</svg>
